<svg width="150" height="37" viewBox="0 0 150 37" fill="none" xmlns="http://www.w3.org/2000/svg">
<g clip-path="url(#clip0_323_1025)">
<path d="M129.252 32.818V27.5715L146.175 15.5889H129.333V10.0281H149.512V14.7809L132.592 26.8083H149.515V32.818H129.252Z" fill="#F8F8F8"/>
<path fill-rule="evenodd" clip-rule="evenodd" d="M31.918 32.818V9.979H35.0481H38.1781V32.818H31.918Z" fill="#F8F8F8"/>
<path fill-rule="evenodd" clip-rule="evenodd" d="M74.6914 32.818V10.0281H77.8316H80.9712V32.818H74.6914Z" fill="#F8F8F8"/>
<path fill-rule="evenodd" clip-rule="evenodd" d="M117.503 32.818V10.0281H120.635H123.766V32.818H117.503Z" fill="#F8F8F8"/>
<path fill-rule="evenodd" clip-rule="evenodd" d="M50.1197 35.7311C52.0788 36.2995 54.4245 36.5835 57.1558 36.5835C59.8574 36.5835 62.2031 36.2696 64.1924 35.6409C66.2113 35.0426 67.7552 34.1753 68.824 33.038C69.8927 31.9011 70.4271 30.5551 70.4271 28.9993C70.4271 26.7849 69.3139 25.1245 67.0868 24.0175C64.8899 22.8807 61.7577 22.2973 57.6902 22.2675H55.9535C55.4191 22.2376 54.8996 22.1927 54.3948 22.133C52.1386 21.983 50.1939 21.714 48.561 21.3249C46.9579 20.9358 45.7106 20.4122 44.8203 19.7542C43.9591 19.0961 43.5285 18.303 43.5285 17.3754C43.5285 16.927 43.6768 16.5529 43.9739 16.2535C44.3002 15.9247 44.7159 15.7598 45.2207 15.7598C45.7847 15.7598 46.3043 15.85 46.7794 16.0293C47.2544 16.2086 47.863 16.5081 48.6055 16.927C49.4662 17.3754 50.2532 17.7495 50.9655 18.0489C51.7081 18.3478 52.6434 18.6173 53.7715 18.8564C54.9292 19.0662 56.2655 19.1708 57.7792 19.1708C60.2732 19.1708 62.4552 18.8863 64.3259 18.3179C66.1965 17.7196 67.636 16.8817 68.6455 15.8046C69.6549 14.6977 70.1597 13.3815 70.1597 11.8556C70.1597 10.509 69.7884 9.32737 69.0464 8.31009C68.3044 7.26293 67.2356 6.42499 65.8401 5.7968C64.4445 5.13872 62.782 4.7048 60.852 4.49559V0.561523H54.3948V4.49559C51.4258 4.82436 49.1844 5.60252 47.6702 6.82902C46.156 8.02615 45.3992 9.52164 45.3992 11.3171C45.3992 12.7533 46.1412 14.1442 47.6257 15.4908C47.3879 15.3413 47.1506 15.2362 46.9134 15.1764C46.6756 15.0868 46.4531 15.012 46.245 14.9523L45.7996 14.8626C45.6513 14.8327 45.503 14.8178 45.3547 14.8178C44.5528 14.8178 43.8998 15.0718 43.3951 15.5805C42.8903 16.0891 42.6377 16.7023 42.6377 17.4207C42.6377 18.9461 43.4989 20.1731 45.2207 21.1007C46.943 21.9979 49.6446 22.6261 53.3261 22.9853C50.0901 23.2847 47.7443 24.0624 46.2895 25.3193C44.8648 26.5757 44.1519 27.997 44.1519 29.5827C44.1519 31.0787 44.6566 32.335 45.6661 33.3523C46.7052 34.3995 48.1898 35.1926 50.1197 35.7311ZM60.7631 31.3327C59.7536 31.7218 58.581 31.9161 57.2448 31.9161C55.9387 31.9161 54.7809 31.7218 53.7715 31.3327C52.762 30.9735 51.975 30.4649 51.4109 29.8068C50.8469 29.1786 50.5651 28.4458 50.5651 27.6079C50.5651 26.74 50.8469 25.9774 51.4109 25.3193C51.975 24.6308 52.762 24.1072 53.7715 23.7485C54.7809 23.3893 55.9387 23.21 57.2448 23.21C59.323 23.21 60.9564 23.6135 62.1438 24.4216C63.3609 25.1992 63.9694 26.2613 63.9694 27.6079C63.9694 28.4458 63.6877 29.1786 63.1236 29.8068C62.5596 30.4649 61.7725 30.9735 60.7631 31.3327ZM62.1883 17.0167C61.0602 17.9139 59.5905 18.3627 57.7792 18.3627C55.9091 18.3627 54.4097 17.9139 53.2816 17.0167C52.1535 16.119 51.5894 14.9523 51.5894 13.516C51.5894 12.0499 52.1535 10.8533 53.2816 9.92567C54.4393 8.96817 55.9387 8.48942 57.7792 8.48942C59.5905 8.48942 61.0602 8.96817 62.1883 9.92567C63.3461 10.8533 63.9249 12.0499 63.9249 13.516C63.9249 14.9523 63.3461 16.119 62.1883 17.0167Z" fill="#F8F8F8"/>
<path d="M120.895 7.3985H120.634H120.373L117.383 0.561523H120.634H123.885L120.895 7.3985Z" fill="#F8F8F8"/>
<path d="M78.0993 7.3985H77.8323H77.5776L74.582 0.561523H77.8323H81.0842L78.0993 7.3985Z" fill="#F8F8F8"/>
<path d="M35.2966 7.48603H35.0466H34.7749L31.7852 0.561523H35.0455H38.3017L35.2966 7.48603Z" fill="#F8F8F8"/>
<path d="M10.0835 32.8181C8.33147 32.8181 6.74418 32.3585 5.31896 31.3413C3.9234 30.324 2.81013 28.9326 1.97915 27.1676C1.17729 25.3721 0.776367 23.3829 0.776367 21.1989C0.776367 19.0144 1.17729 17.0402 1.97915 15.2746C2.81013 13.4797 3.9234 12.0734 5.31896 11.0561C6.74418 10.0388 8.33253 9.53018 10.084 9.53018C12.1326 9.53018 13.8989 10.2934 15.3834 11.8193C16.868 13.3148 17.8774 15.3045 18.4118 17.7879V0.561523H24.609V32.8181H18.4118V24.6094C17.8774 27.0928 16.868 29.0975 15.3834 30.6234C13.8989 32.1189 12.1321 32.8181 10.0835 32.8181ZM12.8449 27.0779C13.9137 27.0779 14.8787 26.8233 15.7399 26.3147C16.6307 25.806 17.3134 25.1031 17.7885 24.2054C18.2932 23.3082 18.5453 22.3059 18.5453 21.1989C18.5453 20.0915 18.2932 19.0891 17.7885 18.192C17.3134 17.2942 16.6307 16.5913 15.7399 16.0827C14.8787 15.5442 13.9137 15.2746 12.8449 15.2746C11.7762 15.2746 10.7969 15.5442 9.90605 16.0827C9.04488 16.5913 8.36219 17.2942 7.85746 18.192C7.35273 19.0891 7.10009 20.0915 7.10009 21.1989C7.10009 22.3059 7.35273 23.3082 7.85746 24.2054C8.36219 25.1031 9.04488 25.806 9.90605 26.3147C10.7969 26.8233 11.7762 27.0779 12.8449 27.0779Z" fill="#F8F8F8"/>
<path d="M95.6708 32.8181C93.9188 32.8181 92.2881 32.3585 90.8629 31.3413C89.4673 30.324 88.3541 28.9326 87.5226 27.1676C86.7212 25.3721 86.3203 23.3829 86.3203 21.1989C86.3203 19.0144 86.7212 17.0402 87.5226 15.2746C88.3541 13.4797 89.4673 12.0734 90.8629 11.0561C92.2881 10.0388 93.8765 9.53018 95.6279 9.53018C97.6765 9.53018 99.4428 10.2934 100.927 11.8193C102.412 13.3148 103.421 15.3045 103.956 17.7879V0.561523H110.196V32.8181H103.956V24.6094C103.421 27.0928 102.412 29.0975 100.927 30.6234C99.4428 32.1189 97.7194 32.8181 95.6708 32.8181ZM98.3889 27.0779C99.4577 27.0779 100.423 26.8233 101.284 26.3147C102.175 25.806 102.857 25.1031 103.332 24.2054C103.837 23.3082 104.089 22.3059 104.089 21.1989C104.089 20.0915 103.837 19.0891 103.332 18.192C102.857 17.2942 102.175 16.5913 101.284 16.0827C100.423 15.5442 99.4577 15.2746 98.3889 15.2746C97.3201 15.2746 96.3403 15.5442 95.45 16.0827C94.5888 16.5913 93.9061 17.2942 93.4014 18.192C92.8967 19.0891 92.644 20.0915 92.644 21.1989C92.644 22.3059 92.8967 23.3082 93.4014 24.2054C93.9061 25.1031 94.5888 25.806 95.45 26.3147C96.3403 26.8233 97.3201 27.0779 98.3889 27.0779Z" fill="#F8F8F8"/>
</g>
<defs>
<clipPath id="clip0_323_1025">
<rect width="150" height="36" fill="white" transform="translate(0 0.5)"/>
</clipPath>
</defs>
</svg>
