<svg width="50" height="50" viewBox="0 0 50 50" fill="none" xmlns="http://www.w3.org/2000/svg">
<g id="&#208;&#161;&#208;&#181;&#209;&#128;&#208;&#179;&#208;&#181;&#208;&#185;">
<path id="Vector" d="M0 2.77778C0 2.04107 0.292658 1.33453 0.813592 0.813592C1.33453 0.292658 2.04107 0 2.77778 0H25C25.7367 0 26.4433 0.292658 26.9642 0.813592C27.4851 1.33453 27.7778 2.04107 27.7778 2.77778C27.7778 3.51449 27.4851 4.22103 26.9642 4.74196C26.4433 5.2629 25.7367 5.55556 25 5.55556H2.77778C2.04107 5.55556 1.33453 5.2629 0.813592 4.74196C0.292658 4.22103 0 3.51449 0 2.77778ZM0 25C0 24.2633 0.292658 23.5567 0.813592 23.0358C1.33453 22.5149 2.04107 22.2222 2.77778 22.2222H25C25.7367 22.2222 26.4433 22.5149 26.9642 23.0358C27.4851 23.5567 27.7778 24.2633 27.7778 25C27.7778 25.7367 27.4851 26.4432 26.9642 26.9642C26.4433 27.4851 25.7367 27.7778 25 27.7778H2.77778C2.04107 27.7778 1.33453 27.4851 0.813592 26.9642C0.292658 26.4432 0 25.7367 0 25ZM0 36.1111C0 35.3744 0.292658 34.6679 0.813592 34.1469C1.33453 33.626 2.04107 33.3333 2.77778 33.3333H25C25.7367 33.3333 26.4433 33.626 26.9642 34.1469C27.4851 34.6679 27.7778 35.3744 27.7778 36.1111C27.7778 36.8478 27.4851 37.5544 26.9642 38.0753C26.4433 38.5962 25.7367 38.8889 25 38.8889H2.77778C2.04107 38.8889 1.33453 38.5962 0.813592 38.0753C0.292658 37.5544 0 36.8478 0 36.1111ZM0 47.2222C0 46.4855 0.292658 45.779 0.813592 45.258C1.33453 44.7371 2.04107 44.4444 2.77778 44.4444H25C25.7367 44.4444 26.4433 44.7371 26.9642 45.258C27.4851 45.779 27.7778 46.4855 27.7778 47.2222C27.7778 47.9589 27.4851 48.6655 26.9642 49.1864C26.4433 49.7073 25.7367 50 25 50H2.77778C2.04107 50 1.33453 49.7073 0.813592 49.1864C0.292658 48.6655 0 47.9589 0 47.2222Z" fill="#DCDCDC"/>
<path id="Vector_2" fill-rule="evenodd" clip-rule="evenodd" d="M33.8056 16.6667C34.4608 18.5208 35.7505 20.0836 37.4467 21.0788C39.1428 22.074 41.1362 22.4375 43.0744 22.105C45.0126 21.7726 46.771 20.7656 48.0385 19.2622C49.3061 17.7587 50.0014 15.8554 50.0014 13.8889C50.0014 11.9224 49.3061 10.0191 48.0385 8.51564C46.771 7.01214 45.0126 6.00518 43.0744 5.67275C41.1362 5.34032 39.1428 5.70382 37.4467 6.69901C35.7505 7.69419 34.4608 9.25697 33.8056 11.1111H2.77778C2.04107 11.1111 1.33453 11.4038 0.813592 11.9247C0.292658 12.4456 0 13.1522 0 13.8889C0 14.6256 0.292658 15.3321 0.813592 15.8531C1.33453 16.374 2.04107 16.6667 2.77778 16.6667H33.8056ZM44.4444 13.8889C44.4444 14.6256 44.1518 15.3321 43.6309 15.8531C43.1099 16.374 42.4034 16.6667 41.6667 16.6667C40.93 16.6667 40.2234 16.374 39.7025 15.8531C39.1815 15.3321 38.8889 14.6256 38.8889 13.8889C38.8889 13.1522 39.1815 12.4456 39.7025 11.9247C40.2234 11.4038 40.93 11.1111 41.6667 11.1111C42.4034 11.1111 43.1099 11.4038 43.6309 11.9247C44.1518 12.4456 44.4444 13.1522 44.4444 13.8889Z" fill="#0061FE"/>
</g>
</svg>
